<?xml version="1.0" encoding="UTF-8" standalone="no"?>
<!DOCTYPE svg PUBLIC "-//W3C//DTD SVG 1.1//EN"
 "http://www.w3.org/Graphics/SVG/1.1/DTD/svg11.dtd">
<!-- Generated by graphviz version 14.1.2 (20260124.0452)
 -->
<!-- Title: G Pages: 1 -->
<svg width="124pt" height="443pt"
 viewBox="0.00 0.00 124.00 443.00" xmlns="http://www.w3.org/2000/svg" xmlns:xlink="http://www.w3.org/1999/xlink">
<g id="graph0" class="graph" transform="scale(1 1) rotate(0) translate(4 439)">
<title>G</title><style>.edge>path:hover{stroke-width:8}</style>
<polygon fill="white" stroke="none" points="-4,4 -4,-439 120.41,-439 120.41,4 -4,4"/>
<!-- flask -->
<g id="node1" class="node">
<title>flask</title><style>.edge>path:hover{stroke-width:8}</style>
<ellipse fill="#cc3333" stroke="black" cx="61.41" cy="-417" rx="27" ry="18"/>
<text xml:space="preserve" text-anchor="middle" x="61.41" y="-413.5" font-family="Helvetica,sans-Serif" font-size="10.00" fill="#ffffff">flask</text>
</g>
<!-- src_app -->
<g id="node4" class="node">
<title>src_app</title><style>.edge>path:hover{stroke-width:8}</style>
<ellipse fill="#3d3db8" stroke="black" cx="61.41" cy="-199" rx="29.01" ry="18"/>
<text xml:space="preserve" text-anchor="middle" x="61.41" y="-195.5" font-family="Helvetica,sans-Serif" font-size="10.00" fill="#ffffff">src.app</text>
</g>
<!-- flask&#45;&gt;src_app -->
<g id="edge1" class="edge">
<title>flask&#45;&gt;src_app</title><style>.edge>path:hover{stroke-width:8}</style>
<path fill="none" stroke="black" d="M61.41,-325C52.63,-296.75 19.59,-314.97 5.41,-289 -2.25,-274.96 -0.91,-267.7 5.41,-253 11.16,-239.65 22.11,-228.09 32.81,-219.2"/>
<polygon fill="#cc3333" stroke="black" points="34.66,-222.2 40.43,-213.31 30.38,-216.66 34.66,-222.2"/>
<path fill="none" stroke="black" d="M63.88,-398.78C65.93,-380.43 67.64,-350.7 61.41,-326"/>
</g>
<!-- src_app_routes -->
<g id="node5" class="node">
<title>src_app_routes</title><style>.edge>path:hover{stroke-width:8}</style>
<ellipse fill="#4c4cb3" stroke="black" cx="61.41" cy="-271" rx="47.05" ry="18"/>
<text xml:space="preserve" text-anchor="middle" x="61.41" y="-267.5" font-family="Helvetica,sans-Serif" font-size="10.00" fill="#ffffff">src.app.routes</text>
</g>
<!-- flask&#45;&gt;src_app_routes -->
<g id="edge2" class="edge">
<title>flask&#45;&gt;src_app_routes</title><style>.edge>path:hover{stroke-width:8}</style>
<path fill="none" stroke="black" d="M61.41,-325C58.99,-317.21 58.25,-308.45 58.31,-300.34"/>
<polygon fill="#cc3333" stroke="black" points="61.79,-300.77 58.8,-290.61 54.8,-300.42 61.79,-300.77"/>
</g>
<!-- run_py -->
<g id="node2" class="node">
<title>run_py</title><style>.edge>path:hover{stroke-width:8}</style>
<ellipse fill="#569f56" stroke="black" cx="34.41" cy="-18" rx="27" ry="18"/>
<text xml:space="preserve" text-anchor="middle" x="34.41" y="-14.5" font-family="Helvetica,sans-Serif" font-size="10.00" fill="#000000">run.py</text>
</g>
<!-- src -->
<g id="node3" class="node">
<title>src</title><style>.edge>path:hover{stroke-width:8}</style>
<ellipse fill="#4c4cb3" stroke="black" cx="89.41" cy="-127" rx="27" ry="18"/>
<text xml:space="preserve" text-anchor="middle" x="89.41" y="-123.5" font-family="Helvetica,sans-Serif" font-size="10.00" fill="#ffffff">src</text>
</g>
<!-- src&#45;&gt;run_py -->
<g id="edge3" class="edge">
<title>src&#45;&gt;run_py</title><style>.edge>path:hover{stroke-width:8}</style>
<path fill="none" stroke="black" d="M69,-114.73C55.22,-105.62 38.77,-91.32 34.41,-73"/>
</g>
<!-- src_app&#45;&gt;run_py -->
<g id="edge4" class="edge">
<title>src_app&#45;&gt;run_py</title><style>.edge>path:hover{stroke-width:8}</style>
<path fill="none" stroke="black" d="M57.97,-180.97C53.04,-156.86 43.57,-111.45 34.41,-73"/>
<path fill="none" stroke="black" d="M34.41,-72C32.19,-64.15 31.5,-55.38 31.56,-47.26"/>
<polygon fill="#3d3db8" stroke="black" points="35.04,-47.7 32.01,-37.55 28.05,-47.37 35.04,-47.7"/>
</g>
<!-- src_app&#45;&gt;src -->
<g id="edge5" class="edge">
<title>src_app&#45;&gt;src</title><style>.edge>path:hover{stroke-width:8}</style>
<path fill="none" stroke="black" d="M68.19,-181.05C71.29,-173.32 75.03,-163.96 78.51,-155.27"/>
<polygon fill="#3d3db8" stroke="black" points="81.67,-156.78 82.14,-146.19 75.17,-154.18 81.67,-156.78"/>
</g>
<!-- src_app_routes&#45;&gt;src_app -->
<g id="edge6" class="edge">
<title>src_app_routes&#45;&gt;src_app</title><style>.edge>path:hover{stroke-width:8}</style>
<path fill="none" stroke="black" d="M61.41,-252.7C61.41,-245.41 61.41,-236.73 61.41,-228.54"/>
<polygon fill="#4c4cb3" stroke="black" points="64.92,-228.62 61.41,-218.62 57.92,-228.62 64.92,-228.62"/>
</g>
</g>
</svg>
