<?xml version="1.0" encoding="UTF-8" standalone="no"?>
<!DOCTYPE svg PUBLIC "-//W3C//DTD SVG 1.1//EN"
 "http://www.w3.org/Graphics/SVG/1.1/DTD/svg11.dtd">
<!-- Generated by graphviz version 14.1.2 (20260124.0452)
 -->
<!-- Title: G Pages: 1 -->
<svg width="271pt" height="443pt"
 viewBox="0.00 0.00 271.00 443.00" xmlns="http://www.w3.org/2000/svg" xmlns:xlink="http://www.w3.org/1999/xlink">
<g id="graph0" class="graph" transform="scale(1 1) rotate(0) translate(4 439)">
<title>G</title><style>.edge>path:hover{stroke-width:8}</style>
<polygon fill="white" stroke="none" points="-4,4 -4,-439 266.92,-439 266.92,4 -4,4"/>
<!-- dotenv -->
<g id="node1" class="node">
<title>dotenv</title><style>.edge>path:hover{stroke-width:8}</style>
<ellipse fill="#ac4949" stroke="black" cx="161.41" cy="-127" rx="27.21" ry="18"/>
<text xml:space="preserve" text-anchor="middle" x="161.41" y="-123.5" font-family="Helvetica,sans-Serif" font-size="10.00" fill="#ffffff">dotenv</text>
</g>
<!-- run_py -->
<g id="node5" class="node">
<title>run_py</title><style>.edge>path:hover{stroke-width:8}</style>
<ellipse fill="#529999" stroke="black" cx="61.41" cy="-18" rx="27" ry="18"/>
<text xml:space="preserve" text-anchor="middle" x="61.41" y="-14.5" font-family="Helvetica,sans-Serif" font-size="10.00" fill="#000000">run.py</text>
</g>
<!-- dotenv&#45;&gt;run_py -->
<g id="edge1" class="edge">
<title>dotenv&#45;&gt;run_py</title><style>.edge>path:hover{stroke-width:8}</style>
<path fill="none" stroke="black" d="M140.04,-115.65C111.03,-101.46 62.62,-77.23 61.41,-73"/>
</g>
<!-- dotenv_ipython -->
<g id="node2" class="node">
<title>dotenv_ipython</title><style>.edge>path:hover{stroke-width:8}</style>
<ellipse fill="#b34c4c" stroke="black" cx="215.41" cy="-199" rx="47.51" ry="18"/>
<text xml:space="preserve" text-anchor="middle" x="215.41" y="-195.5" font-family="Helvetica,sans-Serif" font-size="10.00" fill="#ffffff">dotenv.ipython</text>
</g>
<!-- dotenv_ipython&#45;&gt;dotenv -->
<g id="edge2" class="edge">
<title>dotenv_ipython&#45;&gt;dotenv</title><style>.edge>path:hover{stroke-width:8}</style>
<path fill="none" stroke="black" d="M202.62,-181.41C195.97,-172.8 187.73,-162.11 180.36,-152.56"/>
<polygon fill="#b34c4c" stroke="black" points="183.18,-150.49 174.3,-144.71 177.64,-154.76 183.18,-150.49"/>
</g>
<!-- dotenv_main -->
<g id="node3" class="node">
<title>dotenv_main</title><style>.edge>path:hover{stroke-width:8}</style>
<ellipse fill="#c24747" stroke="black" cx="191.41" cy="-271" rx="41.19" ry="18"/>
<text xml:space="preserve" text-anchor="middle" x="191.41" y="-267.5" font-family="Helvetica,sans-Serif" font-size="10.00" fill="#ffffff">dotenv.main</text>
</g>
<!-- dotenv_main&#45;&gt;dotenv -->
<g id="edge3" class="edge">
<title>dotenv_main&#45;&gt;dotenv</title><style>.edge>path:hover{stroke-width:8}</style>
<path fill="none" stroke="black" d="M178.12,-253.97C170.74,-244 162.29,-230.55 158.41,-217 152.79,-197.31 153.79,-174.18 156.06,-156.43"/>
<polygon fill="#c24747" stroke="black" points="159.51,-157.02 157.55,-146.61 152.59,-155.97 159.51,-157.02"/>
</g>
<!-- dotenv_main&#45;&gt;dotenv_ipython -->
<g id="edge4" class="edge">
<title>dotenv_main&#45;&gt;dotenv_ipython</title><style>.edge>path:hover{stroke-width:8}</style>
<path fill="none" stroke="black" d="M197.35,-252.7C199.91,-245.24 202.96,-236.32 205.83,-227.97"/>
<polygon fill="#c24747" stroke="black" points="209.13,-229.13 209.06,-218.54 202.51,-226.86 209.13,-229.13"/>
</g>
<!-- flask -->
<g id="node4" class="node">
<title>flask</title><style>.edge>path:hover{stroke-width:8}</style>
<ellipse fill="#80cc33" stroke="black" cx="61.41" cy="-417" rx="27" ry="18"/>
<text xml:space="preserve" text-anchor="middle" x="61.41" y="-413.5" font-family="Helvetica,sans-Serif" font-size="10.00" fill="#000000">flask</text>
</g>
<!-- src_app -->
<g id="node7" class="node">
<title>src_app</title><style>.edge>path:hover{stroke-width:8}</style>
<ellipse fill="#7a3db8" stroke="black" cx="61.41" cy="-199" rx="29.01" ry="18"/>
<text xml:space="preserve" text-anchor="middle" x="61.41" y="-195.5" font-family="Helvetica,sans-Serif" font-size="10.00" fill="#ffffff">src.app</text>
</g>
<!-- flask&#45;&gt;src_app -->
<g id="edge5" class="edge">
<title>flask&#45;&gt;src_app</title><style>.edge>path:hover{stroke-width:8}</style>
<path fill="none" stroke="black" d="M64.41,-398.63C66.91,-380.16 68.97,-350.32 61.41,-326"/>
<path fill="none" stroke="black" d="M61.41,-325C50.67,-297.43 19.59,-314.97 5.41,-289 -2.25,-274.96 -0.91,-267.7 5.41,-253 11.16,-239.65 22.11,-228.09 32.81,-219.2"/>
<polygon fill="#80cc33" stroke="black" points="34.66,-222.2 40.43,-213.31 30.38,-216.66 34.66,-222.2"/>
</g>
<!-- src_app_routes -->
<g id="node8" class="node">
<title>src_app_routes</title><style>.edge>path:hover{stroke-width:8}</style>
<ellipse fill="#7f4cb3" stroke="black" cx="61.41" cy="-271" rx="47.05" ry="18"/>
<text xml:space="preserve" text-anchor="middle" x="61.41" y="-267.5" font-family="Helvetica,sans-Serif" font-size="10.00" fill="#ffffff">src.app.routes</text>
</g>
<!-- flask&#45;&gt;src_app_routes -->
<g id="edge6" class="edge">
<title>flask&#45;&gt;src_app_routes</title><style>.edge>path:hover{stroke-width:8}</style>
<path fill="none" stroke="black" d="M61.41,-325C58.99,-317.21 58.25,-308.45 58.31,-300.34"/>
<polygon fill="#80cc33" stroke="black" points="61.79,-300.77 58.8,-290.61 54.8,-300.42 61.79,-300.77"/>
</g>
<!-- src -->
<g id="node6" class="node">
<title>src</title><style>.edge>path:hover{stroke-width:8}</style>
<ellipse fill="#7f4cb3" stroke="black" cx="89.41" cy="-127" rx="27" ry="18"/>
<text xml:space="preserve" text-anchor="middle" x="89.41" y="-123.5" font-family="Helvetica,sans-Serif" font-size="10.00" fill="#ffffff">src</text>
</g>
<!-- src&#45;&gt;run_py -->
<g id="edge7" class="edge">
<title>src&#45;&gt;run_py</title><style>.edge>path:hover{stroke-width:8}</style>
<path fill="none" stroke="black" d="M78.71,-110.04C72.49,-99.89 65.17,-86.21 61.41,-73"/>
</g>
<!-- src_app&#45;&gt;run_py -->
<g id="edge8" class="edge">
<title>src_app&#45;&gt;run_py</title><style>.edge>path:hover{stroke-width:8}</style>
<path fill="none" stroke="black" d="M58.17,-180.89C56.37,-170.54 54.32,-157.06 53.41,-145 52.22,-129.04 51.67,-124.9 53.41,-109 55.2,-92.71 65.89,-88.77 61.41,-73"/>
<path fill="none" stroke="black" d="M61.41,-72C58.88,-64.24 58.11,-55.5 58.17,-47.38"/>
<polygon fill="#7a3db8" stroke="black" points="61.65,-47.81 58.68,-37.64 54.66,-47.44 61.65,-47.81"/>
</g>
<!-- src_app&#45;&gt;src -->
<g id="edge9" class="edge">
<title>src_app&#45;&gt;src</title><style>.edge>path:hover{stroke-width:8}</style>
<path fill="none" stroke="black" d="M68.19,-181.05C71.29,-173.32 75.03,-163.96 78.51,-155.27"/>
<polygon fill="#7a3db8" stroke="black" points="81.67,-156.78 82.14,-146.19 75.17,-154.18 81.67,-156.78"/>
</g>
<!-- src_app_routes&#45;&gt;src_app -->
<g id="edge10" class="edge">
<title>src_app_routes&#45;&gt;src_app</title><style>.edge>path:hover{stroke-width:8}</style>
<path fill="none" stroke="black" d="M61.41,-252.7C61.41,-245.41 61.41,-236.73 61.41,-228.54"/>
<polygon fill="#7f4cb3" stroke="black" points="64.92,-228.62 61.41,-218.62 57.92,-228.62 64.92,-228.62"/>
</g>
</g>
</svg>
